# xmcd CD database file
#
# Track frame offsets:
#	150
#	13310
#	33080
#	54042
#	68135
#	93977
#	119845
#	131000
#	145065
#	160390
#	177455
#
# Disc length: 2701 seconds
#
# Revision: 0
# Processed by: cddbd v1.4PL0 Copyright (c) Steve Scherf et al.
# Submitted via: Feurio! 1.65 - http://www.feurio.com
#
DISCID=970a8b0b
DTITLE=Terry Dolan's Acoustic Rangers - Terry Dolan's Acoustic Rangers
DYEAR=1979
DGENRE=
TTITLE0=Nite Hawkin' The Dawn
TTITLE1=Rhythm Rider
TTITLE2=Lost Cargo
TTITLE3=Tree Moon and Tide
TTITLE4=So Hard To Be Soft
TTITLE5=Borrow Love And Go
TTITLE6=Waters Of Life
TTITLE7=Playin' To Win
TTITLE8=The First Kiss
TTITLE9=Corrina Corrina
TTITLE10=Wish I Was Your River
EXTD=ARD Sawdust Records Line Records SDCD 9.00453
EXTT0=
EXTT1=
EXTT2=
EXTT3=
EXTT4=
EXTT5=
EXTT6=
EXTT7=
EXTT8=
EXTT9=
EXTT10=
PLAYORDER=
